<svg xmlns="http://www.w3.org/2000/svg" width="512" height="512" viewBox="0 0 512 512" version="1.1">
	<path d="M 132.500 32.042 C 112.308 35.180, 92.583 45.407, 77.136 60.745 C 58.418 79.333, 49 101.310, 49 126.405 C 49 155.712, 64.618 180.254, 91.689 193.486 C 102.561 198.801, 110.391 200.316, 123.750 199.691 C 129.938 199.401, 135 199.371, 135 199.624 C 135 199.876, 133.370 204.677, 131.378 210.292 C 127.505 221.205, 127.016 226.373, 128.234 243.500 L 128.802 251.500 135.487 251.632 C 141.869 251.759, 142.143 251.668, 141.536 249.632 C 141.187 248.460, 140.157 244.068, 139.248 239.873 C 137.704 232.749, 137.707 231.730, 139.290 224.434 C 140.222 220.138, 143.013 212.454, 145.491 207.360 C 149.185 199.767, 150.808 197.540, 154.498 195.001 C 158.754 192.073, 159 191.647, 159.006 187.202 C 159.015 179.297, 160.756 175.114, 166.374 169.496 C 171.085 164.785, 181.645 158.749, 193.221 154.150 C 195.941 153.070, 195.942 153.065, 195.425 144.784 C 193.776 118.365, 190.609 104.763, 183.265 92.554 C 181.262 89.224, 174.982 81.929, 169.309 76.342 C 162.076 69.221, 158.250 64.588, 156.507 60.842 C 153.456 54.290, 153.419 53.385, 156.175 52.665 C 163.171 50.835, 177.608 57.578, 187.040 67.082 C 201.059 81.208, 207.307 101.697, 206.876 132.135 C 206.801 137.434, 207.049 142.271, 207.429 142.885 C 207.808 143.498, 209.130 144, 210.368 144 C 214.676 144, 215.701 142.025, 216.858 131.500 C 218.167 119.602, 219.919 113.084, 222.198 111.647 C 224.715 110.059, 232.969 114.338, 239.288 120.508 C 244.819 125.908, 250.609 135.774, 253.537 144.789 C 254.482 147.698, 255.371 149.948, 255.513 149.789 C 255.654 149.630, 257.174 145.973, 258.890 141.662 C 264.459 127.672, 273.196 117.105, 282.738 112.820 C 290.356 109.399, 291.985 111.970, 294.183 130.873 C 295.445 141.734, 296.527 144, 300.449 144 C 304.639 144, 305.231 141.997, 304.501 130.293 C 302.066 91.251, 320.149 59.354, 348.291 53.047 C 361.661 50.051, 358.769 58.926, 340.301 77.573 C 326.335 91.673, 321.210 101.396, 317.969 119.938 C 316.693 127.239, 315.227 151.764, 315.995 152.964 C 316.273 153.397, 319.924 155.174, 324.108 156.911 C 333.362 160.752, 339.474 164.540, 344.460 169.527 C 349.273 174.340, 351 178.552, 351 185.478 C 351 189.548, 351.465 191.397, 352.750 192.440 C 353.712 193.222, 355.982 195.074, 357.793 196.556 C 361.687 199.742, 369.209 214.751, 371.611 224.126 C 373.282 230.648, 373.050 238.668, 370.974 246.151 C 369.995 249.678, 369.748 249.839, 363.648 250.901 C 353.898 252.599, 354.287 252.796, 353.487 245.750 C 351.400 227.345, 341.018 201.900, 331.083 190.839 C 315.201 173.157, 297.815 180.345, 296.266 205.234 C 295.615 215.699, 297.179 223.273, 301.281 229.520 C 305.844 236.468, 311.155 239.875, 319.562 241.248 C 323.378 241.871, 326.679 242.512, 326.899 242.673 C 327.748 243.293, 321.465 251.255, 317.892 254.085 C 315.823 255.724, 309.713 259.093, 304.315 261.572 C 290.041 268.125, 289.545 268.409, 289.195 270.227 C 288.999 271.245, 290.026 272.479, 291.858 273.427 C 294.746 274.920, 295.389 274.762, 312.081 268.469 C 331.811 261.031, 354.951 253.616, 363 252.151 C 366.025 251.601, 371.640 251.090, 375.477 251.015 C 379.314 250.941, 382.584 250.749, 382.744 250.589 C 382.904 250.429, 383.139 243.594, 383.267 235.399 L 383.500 220.500 379.899 211.500 C 377.918 206.550, 375.963 201.727, 375.554 200.782 C 374.867 199.195, 375.683 199.110, 386.215 199.674 C 400.560 200.443, 409.604 198.610, 421.812 192.459 C 440.892 182.845, 455.631 164.818, 460.614 145 C 462.580 137.178, 462.825 120.906, 461.102 112.500 C 453.463 75.235, 426.303 45.218, 390.438 34.406 C 378.148 30.700, 361.353 30.472, 349.500 33.850 C 336.390 37.585, 326.713 43.287, 317 53 C 307.114 62.886, 302.192 70.819, 298.297 83.146 C 296.758 88.014, 295.050 91.992, 294.500 91.987 C 293.950 91.982, 291.291 91.308, 288.591 90.489 C 282.483 88.636, 270.566 88.626, 262 90.467 C 256.408 91.668, 254.452 91.664, 248 90.432 C 238.342 88.588, 228.603 88.610, 222.409 90.489 C 219.709 91.308, 216.969 91.983, 216.321 91.989 C 215.672 91.995, 214.415 89.412, 213.526 86.250 C 210.882 76.843, 208.006 70.344, 203.788 64.250 C 193.242 49.011, 177.905 37.771, 161.661 33.376 C 154.901 31.547, 140.055 30.868, 132.500 32.042 M 130.909 76.836 C 119.743 80.529, 111.168 88.479, 105.387 100.500 C 94.804 122.504, 100.966 144.548, 120.328 153.948 C 134.617 160.886, 148.374 159.962, 168.452 150.719 L 175.403 147.518 171.452 146.817 C 169.278 146.431, 165.475 146.082, 163 146.040 C 150.046 145.824, 135.020 140, 128.127 132.522 C 123.764 127.789, 122.772 125.279, 125.750 126.509 C 134.738 130.220, 158.554 134.581, 165.765 133.837 L 169.031 133.500 163.332 125 C 160.197 120.325, 153.143 111.885, 147.656 106.244 C 142.168 100.603, 137.990 95.677, 138.369 95.297 C 139.640 94.026, 150.421 98.443, 157.791 103.254 C 166.285 108.799, 177.140 119.317, 182.348 127.050 L 186 132.473 185.993 128.987 C 185.980 122.534, 182.001 108.809, 177.771 100.624 C 167.248 80.263, 148.825 70.912, 130.909 76.836 M 359.468 76.339 C 340.889 82.428, 328.357 101.535, 325.582 128 L 324.901 134.500 328.588 129 C 330.616 125.975, 336.694 119.132, 342.093 113.794 C 350.484 105.499, 353.293 103.415, 361.417 99.463 C 375.731 92.500, 376.315 93.613, 364.753 105.832 C 359.393 111.497, 352.902 119.140, 350.329 122.816 C 347.756 126.492, 344.751 130.512, 343.651 131.750 L 341.651 134 346.576 133.994 C 353.578 133.986, 368.971 131.471, 379.500 128.616 C 384.450 127.273, 388.698 126.371, 388.940 126.610 C 389.182 126.850, 387.157 129.309, 384.440 132.075 C 375.916 140.753, 365.234 144.631, 344.500 146.577 L 336.500 147.327 345.770 151.732 C 358.410 157.738, 368.085 159.656, 377.987 158.118 C 391.951 155.950, 403.007 148.813, 407.827 138.858 C 417.783 118.291, 407.662 90.627, 385.946 79.052 C 380.408 76.100, 378.373 75.574, 371.500 75.316 C 366.744 75.139, 361.865 75.553, 359.468 76.339 M 191.234 181.498 C 186.209 183.681, 177.382 192.614, 172.515 200.440 C 164.864 212.741, 159.013 230.244, 157.505 245.343 L 156.821 252.185 149.660 251.603 L 142.500 251.021 150.500 252.891 C 168.183 257.024, 175.367 259.208, 195.275 266.504 C 215.921 274.071, 218.465 274.554, 221.077 271.407 C 223.087 268.985, 219.756 266.673, 208.243 262.495 C 202.602 260.448, 196.195 257.475, 194.004 255.888 C 189.989 252.979, 182.827 244.090, 183.552 242.915 C 183.768 242.567, 186.465 241.986, 189.546 241.624 C 196.381 240.820, 201.263 238.421, 206.386 233.348 C 212.700 227.094, 214.507 222.093, 214.459 211 C 214.390 195.334, 209.751 184.883, 201.298 181.351 C 197.274 179.670, 195.376 179.698, 191.234 181.498 M 192.343 198.566 C 190.280 200.629, 189.899 201.744, 190.400 204.251 C 191.287 208.684, 193.751 211, 197.582 211 C 200.902 211, 205 207.361, 205 204.412 C 205 201.768, 202.720 198.194, 200.343 197.110 C 196.709 195.455, 195.175 195.734, 192.343 198.566 M 308 198 C 305.499 200.501, 305.372 206.022, 307.750 208.886 C 308.712 210.045, 310.933 211.271, 312.684 211.609 C 315.252 212.105, 316.364 211.727, 318.434 209.657 C 321.349 206.742, 321.647 204.152, 319.537 200.072 C 317.182 195.517, 311.503 194.497, 308 198 M 277.463 258.136 C 258.496 269.335, 255.465 269.555, 238.082 261 C 231.377 257.700, 225.465 255, 224.945 255 C 223.374 255, 223.818 270.747, 225.479 273.959 C 226.292 275.532, 230.680 279.573, 235.229 282.940 C 248.833 293.006, 250.784 294.815, 251.996 298.488 C 252.903 301.235, 253.690 302, 255.609 302 C 257.065 302, 258.291 301.288, 258.625 300.250 C 260.448 294.578, 261.972 292.836, 270.996 286.112 C 285.643 275.198, 285.435 275.496, 285.853 264.824 C 286.047 259.864, 285.805 255.405, 285.316 254.916 C 284.795 254.395, 281.534 255.732, 277.463 258.136 M 138.482 258.642 C 124.365 268.006, 115.534 277.635, 108.286 291.567 C 82.498 341.135, 98.987 405.187, 144.762 433.257 C 149.306 436.044, 153.514 438.915, 154.114 439.637 C 155.673 441.515, 152.989 442.466, 136.276 445.954 C 114.542 450.489, 108 454.101, 108 461.562 C 108 465.815, 111.165 468.353, 119.790 471.017 C 123.373 472.124, 126.362 472.910, 126.432 472.764 C 126.502 472.619, 127.331 470.802, 128.274 468.727 C 131.024 462.677, 138.269 461.226, 140.775 466.223 C 141.403 467.475, 142.395 470.385, 142.981 472.690 C 143.665 475.386, 144.747 477.102, 146.013 477.504 C 148.740 478.370, 149.673 477.580, 152.492 472.016 C 156.821 463.473, 164.947 463.058, 169.483 471.147 L 171.527 474.793 180.292 471.496 C 185.112 469.682, 189.698 467.665, 190.483 467.014 C 191.363 466.284, 192.022 463.470, 192.204 459.665 L 192.500 453.500 197.901 453.192 C 200.872 453.023, 207.696 453.325, 213.066 453.863 C 221.546 454.713, 224.951 455.699, 238.993 461.375 L 255.159 467.909 261.329 465.609 C 264.723 464.344, 272.225 461.370, 278 459.001 C 287.873 454.950, 289.354 454.632, 302.794 453.690 C 313.530 452.937, 317.379 452.979, 318.258 453.858 C 318.926 454.526, 319.332 457.329, 319.204 460.383 C 319.063 463.758, 319.446 466.090, 320.240 466.689 C 323.299 468.997, 340.409 475.273, 340.761 474.216 C 340.967 473.600, 342.132 471.612, 343.350 469.798 C 345.198 467.046, 346.281 466.448, 349.885 466.188 C 354.811 465.831, 356.873 467.222, 360.205 473.151 C 361.366 475.217, 362.953 477.152, 363.731 477.450 C 366.259 478.420, 369 476.121, 369 473.030 C 369 462.854, 377.956 460.201, 383.147 468.838 C 384.357 470.852, 385.434 472.627, 385.539 472.782 C 385.903 473.318, 398.944 468.267, 401.469 466.612 C 403.341 465.385, 404 464.084, 404 461.612 C 404 454.070, 397.226 450.340, 375.618 445.985 C 360.349 442.908, 358 442.235, 358 440.940 C 358 440.474, 362.516 437.116, 368.035 433.477 C 390.537 418.640, 406.487 395.953, 413.283 369.117 C 415.141 361.781, 415.457 357.825, 415.409 342.500 C 415.359 326.241, 415.095 323.533, 412.676 314.500 C 407.792 296.262, 398.270 279.416, 386.331 267.889 C 379.845 261.628, 370.932 256, 367.502 256 C 364.600 256, 364.785 258.929, 368.018 264.183 C 371.016 269.056, 374 276.040, 374 278.185 C 374 280.280, 371.778 277.503, 368.912 271.826 C 365.550 265.165, 363.817 264.587, 366.375 270.979 C 368.183 275.497, 368.439 277.389, 367.133 276.582 C 366.656 276.287, 361.827 275.332, 356.402 274.459 C 350.977 273.586, 346.420 272.753, 346.275 272.608 C 346.130 272.463, 347.442 269.125, 349.190 265.190 C 350.939 261.256, 352.131 257.797, 351.839 257.506 C 350.687 256.353, 334.394 261.766, 296.500 275.891 C 285.977 279.813, 285.419 280.419, 289.013 284.013 C 291.026 286.026, 291.029 286.026, 294.928 284.037 C 297.073 282.942, 300.779 281.587, 303.164 281.025 C 305.549 280.464, 310.875 279.092, 315 277.978 C 319.868 276.663, 327.238 275.748, 336 275.371 C 358.293 274.413, 372.272 278.642, 383.315 289.685 C 401.638 308.007, 406.215 342.717, 394.368 373.500 C 383.179 402.576, 362.444 427.711, 338.676 441.015 L 332.851 444.275 329.961 440.768 L 327.070 437.262 320.035 437.765 C 313.986 438.198, 313 438.040, 313 436.634 C 313 435.735, 313.414 435, 313.919 435 C 314.425 435, 317.293 432.757, 320.293 430.016 C 330.094 421.058, 336.969 402.774, 335.510 389.543 C 334.744 382.593, 332.520 376.660, 330.884 377.205 C 330.254 377.415, 328.480 381.452, 326.940 386.176 C 321.397 403.181, 309.601 423.291, 298.570 434.540 C 290.639 442.628, 272.673 451.894, 259.144 454.875 C 253.224 456.180, 246.404 454.308, 232.146 447.467 C 222.492 442.834, 219.714 440.932, 213.586 434.759 C 201.793 422.880, 192.473 407.453, 185.941 389 C 181.924 377.650, 179.993 375.713, 178.102 381.136 C 172.417 397.444, 180.627 423.216, 194.464 432.500 C 201.579 437.274, 201.229 438.181, 192.395 437.852 C 184.844 437.571, 184.784 437.589, 182.044 440.947 L 179.287 444.324 171.394 439.550 C 154.864 429.554, 143.390 418.264, 131.764 400.559 C 109.912 367.281, 105.392 332.722, 119.061 303.445 C 123.432 294.083, 135.421 282.109, 143.419 279.116 C 156.414 274.254, 181.734 274.183, 201.500 278.952 L 209.500 280.882 211.964 278.455 C 213.715 276.729, 214.118 275.718, 213.356 274.956 C 211.975 273.575, 180.282 262.782, 168.250 259.594 C 157.482 256.742, 157.380 256.847, 162 266 C 163.650 269.269, 165 272.406, 165 272.971 C 165 273.537, 163.088 274.016, 160.750 274.035 C 158.412 274.054, 153.688 274.674, 150.250 275.411 C 146.813 276.149, 144 276.620, 144 276.459 C 144 276.298, 144.911 274.040, 146.025 271.441 C 148.975 264.561, 147.638 264.793, 144.115 271.773 C 142.456 275.059, 140.372 278.027, 139.484 278.368 C 137.343 279.190, 138.006 276.934, 143.075 266.154 C 145.234 261.564, 146.748 257.402, 146.441 256.904 C 145.452 255.304, 142.564 255.934, 138.482 258.642 M 242 276.344 C 242 278.457, 250.090 283.083, 254.750 283.634 C 259.067 284.144, 265.272 281.048, 267.876 277.085 L 269.463 274.670 264.981 275.536 C 259.247 276.644, 252.761 276.670, 246.750 275.610 C 242.743 274.904, 242 275.019, 242 276.344 M 213.250 278.674 C 210.153 280.835, 210.419 281.859, 214.523 283.574 C 219.888 285.816, 224.951 282.094, 221.386 278.529 C 219.451 276.594, 216.148 276.653, 213.250 278.674 M 297 278.500 C 297 279.325, 297.188 280, 297.418 280 C 297.648 280, 298.548 280.273, 299.418 280.607 C 300.427 280.994, 301 280.671, 301 279.714 C 301 278.889, 300.288 277.941, 299.418 277.607 C 297.183 276.749, 297 276.817, 297 278.500 M 170.558 281.292 C 170.899 282.178, 168.613 283.297, 163.277 284.858 C 159 286.109, 152.238 288.694, 148.250 290.604 C 141.343 293.911, 141 294.237, 141 297.490 C 141 299.556, 142.622 303.985, 145.106 308.702 C 148.395 314.948, 148.759 316.102, 146.934 314.500 C 144.356 312.237, 144.778 313.228, 149.384 320.256 C 151.098 322.871, 153.496 325.278, 154.714 325.605 C 157.058 326.234, 157.136 326.403, 159.050 335 C 159.723 338.025, 161.431 342.750, 162.845 345.500 L 165.417 350.500 166.179 343.275 C 167.102 334.528, 169.820 328.897, 177.480 319.860 C 186.313 309.441, 204.312 295.113, 212.460 292.015 C 214.662 291.178, 214.937 291.314, 214.733 293.140 C 214.203 297.866, 221.083 298.064, 221.794 293.343 C 222.192 290.697, 219.626 288.673, 212.593 286.084 C 205.363 283.424, 203.741 283.711, 190.289 290.028 C 180.352 294.695, 165.992 304.789, 156.142 314.030 C 153.746 316.279, 151.707 317.979, 151.612 317.809 C 149.062 313.248, 145.881 304.855, 146.156 303.415 C 146.403 302.120, 150.402 299.513, 158.511 295.361 C 173.970 287.445, 174.179 287.390, 177.561 290.298 L 180.317 292.670 190.657 288.085 C 196.344 285.563, 200.998 283.228, 200.999 282.897 C 201.001 281.784, 187.202 280, 178.589 280 C 172.032 280, 170.177 280.298, 170.558 281.292 M 315.750 281.226 C 313.137 281.771, 311.010 282.505, 311.023 282.858 C 311.062 283.970, 331.469 292.004, 334.044 291.921 C 335.395 291.878, 335.919 291.609, 335.208 291.324 C 334.216 290.926, 334.187 290.480, 335.081 289.403 C 336.850 287.271, 338.278 287.619, 348.270 292.619 C 359.354 298.165, 367 303.561, 366.999 305.835 C 366.999 306.751, 365.693 310.260, 364.097 313.634 L 361.195 319.767 354.348 313.083 C 341.036 300.088, 325.904 290.381, 313.068 286.600 C 306.074 284.540, 304.567 284.581, 296.559 287.054 C 291.616 288.581, 289.625 289.729, 288.807 291.525 C 287.363 294.694, 289.327 297.218, 292.914 296.801 C 294.852 296.575, 295.773 295.655, 296.589 293.130 C 297.872 289.162, 300.019 287.715, 303.776 288.286 C 306.326 288.674, 306.296 288.710, 303.309 288.850 C 301.554 288.933, 299.796 289.521, 299.403 290.158 C 298.903 290.965, 299.414 291.131, 301.094 290.707 C 303.229 290.168, 303.307 290.244, 301.788 291.382 C 300.242 292.540, 300.426 292.833, 303.664 294.377 C 308.990 296.917, 324.972 310.091, 332.211 317.910 C 340.285 326.632, 343.909 333.328, 345.426 342.333 L 346.632 349.491 348.386 346.814 C 349.351 345.341, 351.121 340.022, 352.320 334.994 C 354.328 326.575, 354.714 325.809, 357.205 325.310 C 359.256 324.899, 360.920 323.068, 364.085 317.740 C 368.822 309.766, 369.296 309.927, 370.942 320.071 C 374.997 345.064, 367.663 372.946, 349.663 400.972 C 346.001 406.674, 343.199 411.532, 343.436 411.769 C 344.408 412.741, 362.013 399.616, 368.455 393.117 C 379.919 381.552, 386.688 369.160, 390.098 353.500 C 391.747 345.924, 391.802 326.228, 390.194 319 C 388.428 311.065, 385.829 302.659, 384.784 301.500 C 384.232 300.889, 384.126 301.277, 384.511 302.500 L 385.140 304.500 383.516 302.500 C 382.623 301.400, 380.158 298.113, 378.039 295.194 C 373.972 289.594, 373.649 289.569, 372.532 294.776 L 371.829 298.053 369.749 295.408 C 367.221 292.194, 355.700 286.524, 348.363 284.882 C 344.243 283.960, 342.397 283.954, 340.420 284.855 L 337.844 286.028 339.990 283.014 L 342.136 280 331.318 280.118 C 325.368 280.183, 318.363 280.682, 315.750 281.226 M 133.757 295.971 C 125.816 305.248, 121.964 317.295, 121.277 335 C 120.872 345.452, 121.142 348.975, 122.927 356.500 C 126.976 373.576, 136.725 389.059, 150.107 399.669 C 156.508 404.743, 166.706 411.566, 169.483 412.632 C 170.296 412.944, 167.208 407.579, 162.621 400.710 C 147.910 378.681, 140.791 358.074, 140.614 337 C 140.522 326.129, 142.297 313.552, 144.079 312.451 C 144.515 312.182, 143.729 309.465, 142.332 306.413 C 140.935 303.362, 139.553 299.084, 139.261 296.908 C 138.969 294.732, 138.379 292.734, 137.949 292.469 C 137.519 292.203, 135.633 293.779, 133.757 295.971 M 206.500 297.645 C 201.087 300.468, 196 304.250, 196 305.451 C 196 306.099, 197.688 307.455, 199.750 308.464 C 209.078 313.028, 240.296 327.481, 247.768 330.696 L 256.035 334.253 271.484 327.103 C 279.981 323.170, 290.436 318.453, 294.717 316.619 C 306.007 311.784, 315 307.107, 315 306.071 C 315 304.844, 305.048 297, 303.491 297 C 302.804 297, 301.680 298.359, 300.991 300.021 C 299.951 302.533, 297.617 304.063, 287.120 309.114 C 280.179 312.454, 270.324 316.976, 265.220 319.161 C 256.595 322.855, 255.678 323.050, 252.220 321.924 C 246.722 320.135, 213.909 304.228, 211.825 302.342 C 210.628 301.258, 210.229 299.935, 210.625 298.360 C 211.312 295.619, 210.615 295.499, 206.500 297.645 M 196 357.466 C 196 358.272, 199.390 362.972, 203.532 367.910 C 218.718 386.009, 227.419 403.583, 228.819 418.980 C 229.369 425.035, 229.841 426.541, 231.272 426.816 C 232.565 427.063, 233.618 425.857, 235.167 422.356 C 237.115 417.951, 237.196 416.954, 236.149 410.218 C 233.283 391.784, 218.878 369.527, 202.992 358.989 C 198.024 355.693, 196 355.252, 196 357.466 M 309.500 358.180 C 307.300 359.330, 301.423 364.372, 296.440 369.385 C 286.071 379.817, 280.268 389.722, 276.968 402.623 C 273.757 415.178, 275.002 426.145, 279.715 426.815 C 282.266 427.178, 282.650 426.022, 283.313 416 C 284.226 402.188, 291.658 387.038, 306.036 369.676 C 314.049 360, 316.513 355.911, 314.250 356.044 C 313.837 356.069, 311.700 357.029, 309.500 358.180" stroke="none" fill="black" fill-rule="evenodd"/>
</svg>